<mxfile host="app.diagrams.net" modified="2024-01-03T15:24:48.956Z" agent="Mozilla/5.0 (Windows NT 10.0; Win64; x64) AppleWebKit/537.36 (KHTML, like Gecko) Chrome/120.0.0.0 Safari/537.36" etag="l4xl5GCcINHtPpAja3Nw" version="22.1.16" type="device">
  <diagram name="Page-1" id="7B2jJqBgUk0N_kVLm-NF">
    <mxGraphModel dx="2603" dy="746" grid="1" gridSize="10" guides="1" tooltips="1" connect="1" arrows="1" fold="1" page="1" pageScale="1" pageWidth="1169" pageHeight="827" math="0" shadow="0">
      <root>
        <mxCell id="0" />
        <mxCell id="1" parent="0" />
        <mxCell id="tmT9E7BbvO8NceiwNoCN-1" value="" style="rounded=1;whiteSpace=wrap;html=1;arcSize=0;" parent="1" vertex="1">
          <mxGeometry x="-807" y="295" width="126" height="280" as="geometry" />
        </mxCell>
        <mxCell id="tmT9E7BbvO8NceiwNoCN-2" value="user" style="text;html=1;strokeColor=none;fillColor=none;align=center;verticalAlign=middle;whiteSpace=wrap;rounded=0;fontSize=23;" parent="1" vertex="1">
          <mxGeometry x="-807" y="295" width="126" height="30" as="geometry" />
        </mxCell>
        <mxCell id="tmT9E7BbvO8NceiwNoCN-3" value="" style="endArrow=none;html=1;rounded=0;entryX=1;entryY=1;entryDx=0;entryDy=0;exitX=0;exitY=1;exitDx=0;exitDy=0;" parent="1" source="tmT9E7BbvO8NceiwNoCN-2" target="tmT9E7BbvO8NceiwNoCN-2" edge="1">
          <mxGeometry width="50" height="50" relative="1" as="geometry">
            <mxPoint x="-741" y="555" as="sourcePoint" />
            <mxPoint x="-691" y="505" as="targetPoint" />
          </mxGeometry>
        </mxCell>
        <mxCell id="EuwHijLLQVPvpIF5Q3ev-1" value="id_user" style="text;html=1;strokeColor=none;fillColor=none;align=left;verticalAlign=middle;whiteSpace=wrap;rounded=0;fontSize=18;" parent="1" vertex="1">
          <mxGeometry x="-797" y="325" width="116" height="30" as="geometry" />
        </mxCell>
        <mxCell id="WyrtLwI7qsmNqxNzGDoM-1" value="pseudo" style="text;html=1;strokeColor=none;fillColor=none;align=left;verticalAlign=middle;whiteSpace=wrap;rounded=0;fontSize=18;" parent="1" vertex="1">
          <mxGeometry x="-797" y="349" width="116" height="30" as="geometry" />
        </mxCell>
        <mxCell id="WyrtLwI7qsmNqxNzGDoM-2" value="email&amp;nbsp;" style="text;html=1;strokeColor=none;fillColor=none;align=left;verticalAlign=middle;whiteSpace=wrap;rounded=0;fontSize=18;" parent="1" vertex="1">
          <mxGeometry x="-797" y="370" width="116" height="30" as="geometry" />
        </mxCell>
        <mxCell id="WyrtLwI7qsmNqxNzGDoM-3" value="password" style="text;html=1;strokeColor=none;fillColor=none;align=left;verticalAlign=middle;whiteSpace=wrap;rounded=0;fontSize=18;" parent="1" vertex="1">
          <mxGeometry x="-797" y="391" width="116" height="30" as="geometry" />
        </mxCell>
        <mxCell id="WyrtLwI7qsmNqxNzGDoM-4" value="level" style="text;html=1;strokeColor=none;fillColor=none;align=left;verticalAlign=middle;whiteSpace=wrap;rounded=0;fontSize=18;" parent="1" vertex="1">
          <mxGeometry x="-797" y="411" width="116" height="30" as="geometry" />
        </mxCell>
        <mxCell id="WyrtLwI7qsmNqxNzGDoM-5" value="xp_actuelle" style="text;html=1;strokeColor=none;fillColor=none;align=left;verticalAlign=middle;whiteSpace=wrap;rounded=0;fontSize=18;" parent="1" vertex="1">
          <mxGeometry x="-797" y="432" width="116" height="30" as="geometry" />
        </mxCell>
        <mxCell id="WyrtLwI7qsmNqxNzGDoM-6" value="xp_total" style="text;html=1;strokeColor=none;fillColor=none;align=left;verticalAlign=middle;whiteSpace=wrap;rounded=0;fontSize=18;" parent="1" vertex="1">
          <mxGeometry x="-797" y="458" width="116" height="30" as="geometry" />
        </mxCell>
        <mxCell id="WyrtLwI7qsmNqxNzGDoM-7" value="created_at" style="text;html=1;strokeColor=none;fillColor=none;align=left;verticalAlign=middle;whiteSpace=wrap;rounded=0;fontSize=18;" parent="1" vertex="1">
          <mxGeometry x="-797" y="482" width="116" height="30" as="geometry" />
        </mxCell>
        <mxCell id="WyrtLwI7qsmNqxNzGDoM-8" value="user_statut" style="text;html=1;strokeColor=none;fillColor=none;align=left;verticalAlign=middle;whiteSpace=wrap;rounded=0;fontSize=18;" parent="1" vertex="1">
          <mxGeometry x="-797" y="503" width="116" height="30" as="geometry" />
        </mxCell>
        <mxCell id="WyrtLwI7qsmNqxNzGDoM-10" value="role" style="text;html=1;strokeColor=none;fillColor=none;align=left;verticalAlign=middle;whiteSpace=wrap;rounded=0;fontSize=18;" parent="1" vertex="1">
          <mxGeometry x="-797" y="525" width="116" height="30" as="geometry" />
        </mxCell>
        <mxCell id="WyrtLwI7qsmNqxNzGDoM-11" value="user_actif" style="text;html=1;strokeColor=none;fillColor=none;align=left;verticalAlign=middle;whiteSpace=wrap;rounded=0;fontSize=18;" parent="1" vertex="1">
          <mxGeometry x="-797" y="545" width="116" height="30" as="geometry" />
        </mxCell>
        <mxCell id="WyrtLwI7qsmNqxNzGDoM-13" value="" style="rounded=1;whiteSpace=wrap;html=1;arcSize=0;" parent="1" vertex="1">
          <mxGeometry x="-1169" y="295" width="126" height="160" as="geometry" />
        </mxCell>
        <mxCell id="WyrtLwI7qsmNqxNzGDoM-14" value="token" style="text;html=1;strokeColor=none;fillColor=none;align=center;verticalAlign=middle;whiteSpace=wrap;rounded=0;fontSize=23;" parent="1" vertex="1">
          <mxGeometry x="-1169" y="295" width="126" height="30" as="geometry" />
        </mxCell>
        <mxCell id="WyrtLwI7qsmNqxNzGDoM-15" value="" style="endArrow=none;html=1;rounded=0;entryX=1;entryY=1;entryDx=0;entryDy=0;exitX=0;exitY=1;exitDx=0;exitDy=0;" parent="1" source="WyrtLwI7qsmNqxNzGDoM-14" target="WyrtLwI7qsmNqxNzGDoM-14" edge="1">
          <mxGeometry width="50" height="50" relative="1" as="geometry">
            <mxPoint x="-1103" y="555" as="sourcePoint" />
            <mxPoint x="-1053" y="505" as="targetPoint" />
          </mxGeometry>
        </mxCell>
        <mxCell id="WyrtLwI7qsmNqxNzGDoM-16" value="id_token" style="text;html=1;strokeColor=none;fillColor=none;align=left;verticalAlign=middle;whiteSpace=wrap;rounded=0;fontSize=18;" parent="1" vertex="1">
          <mxGeometry x="-1159" y="326" width="116" height="30" as="geometry" />
        </mxCell>
        <mxCell id="WyrtLwI7qsmNqxNzGDoM-17" value="user_id" style="text;html=1;strokeColor=none;fillColor=none;align=left;verticalAlign=middle;whiteSpace=wrap;rounded=0;fontSize=18;" parent="1" vertex="1">
          <mxGeometry x="-1159" y="353" width="116" height="30" as="geometry" />
        </mxCell>
        <mxCell id="WyrtLwI7qsmNqxNzGDoM-18" value="token&amp;nbsp;" style="text;html=1;strokeColor=none;fillColor=none;align=left;verticalAlign=middle;whiteSpace=wrap;rounded=0;fontSize=18;" parent="1" vertex="1">
          <mxGeometry x="-1159" y="377" width="116" height="30" as="geometry" />
        </mxCell>
        <mxCell id="WyrtLwI7qsmNqxNzGDoM-19" value="created_at" style="text;html=1;strokeColor=none;fillColor=none;align=left;verticalAlign=middle;whiteSpace=wrap;rounded=0;fontSize=18;" parent="1" vertex="1">
          <mxGeometry x="-1159" y="399" width="116" height="30" as="geometry" />
        </mxCell>
        <mxCell id="WyrtLwI7qsmNqxNzGDoM-20" value="token_active" style="text;html=1;strokeColor=none;fillColor=none;align=left;verticalAlign=middle;whiteSpace=wrap;rounded=0;fontSize=18;" parent="1" vertex="1">
          <mxGeometry x="-1159" y="424" width="116" height="30" as="geometry" />
        </mxCell>
        <mxCell id="WyrtLwI7qsmNqxNzGDoM-28" value="" style="rounded=1;whiteSpace=wrap;html=1;arcSize=0;" parent="1" vertex="1">
          <mxGeometry x="-993" y="66.5" width="126" height="115" as="geometry" />
        </mxCell>
        <mxCell id="WyrtLwI7qsmNqxNzGDoM-29" value="newsletter&amp;nbsp;" style="text;html=1;strokeColor=none;fillColor=none;align=center;verticalAlign=middle;whiteSpace=wrap;rounded=0;fontSize=23;" parent="1" vertex="1">
          <mxGeometry x="-993" y="66.5" width="126" height="30" as="geometry" />
        </mxCell>
        <mxCell id="WyrtLwI7qsmNqxNzGDoM-30" value="" style="endArrow=none;html=1;rounded=0;entryX=1;entryY=1;entryDx=0;entryDy=0;exitX=0;exitY=1;exitDx=0;exitDy=0;" parent="1" source="WyrtLwI7qsmNqxNzGDoM-29" target="WyrtLwI7qsmNqxNzGDoM-29" edge="1">
          <mxGeometry width="50" height="50" relative="1" as="geometry">
            <mxPoint x="-927" y="326.5" as="sourcePoint" />
            <mxPoint x="-877" y="276.5" as="targetPoint" />
          </mxGeometry>
        </mxCell>
        <mxCell id="WyrtLwI7qsmNqxNzGDoM-31" value="id_newsletter&amp;nbsp;" style="text;html=1;strokeColor=none;fillColor=none;align=left;verticalAlign=middle;whiteSpace=wrap;rounded=0;fontSize=18;" parent="1" vertex="1">
          <mxGeometry x="-983" y="97.5" width="116" height="30" as="geometry" />
        </mxCell>
        <mxCell id="WyrtLwI7qsmNqxNzGDoM-32" value="user_id" style="text;html=1;strokeColor=none;fillColor=none;align=left;verticalAlign=middle;whiteSpace=wrap;rounded=0;fontSize=18;" parent="1" vertex="1">
          <mxGeometry x="-983" y="124.5" width="116" height="30" as="geometry" />
        </mxCell>
        <mxCell id="WyrtLwI7qsmNqxNzGDoM-33" value="email&amp;nbsp;" style="text;html=1;strokeColor=none;fillColor=none;align=left;verticalAlign=middle;whiteSpace=wrap;rounded=0;fontSize=18;" parent="1" vertex="1">
          <mxGeometry x="-983" y="148.5" width="116" height="30" as="geometry" />
        </mxCell>
        <mxCell id="WyrtLwI7qsmNqxNzGDoM-36" value="" style="rounded=1;whiteSpace=wrap;html=1;arcSize=0;" parent="1" vertex="1">
          <mxGeometry x="-743.5" y="70.5" width="126" height="180" as="geometry" />
        </mxCell>
        <mxCell id="WyrtLwI7qsmNqxNzGDoM-37" value="donation&amp;nbsp;" style="text;html=1;strokeColor=none;fillColor=none;align=center;verticalAlign=middle;whiteSpace=wrap;rounded=0;fontSize=23;" parent="1" vertex="1">
          <mxGeometry x="-743.5" y="70.5" width="126" height="30" as="geometry" />
        </mxCell>
        <mxCell id="WyrtLwI7qsmNqxNzGDoM-38" value="" style="endArrow=none;html=1;rounded=0;entryX=1;entryY=1;entryDx=0;entryDy=0;exitX=0;exitY=1;exitDx=0;exitDy=0;" parent="1" source="WyrtLwI7qsmNqxNzGDoM-37" target="WyrtLwI7qsmNqxNzGDoM-37" edge="1">
          <mxGeometry width="50" height="50" relative="1" as="geometry">
            <mxPoint x="-677.5" y="330.5" as="sourcePoint" />
            <mxPoint x="-627.5" y="280.5" as="targetPoint" />
          </mxGeometry>
        </mxCell>
        <mxCell id="WyrtLwI7qsmNqxNzGDoM-39" value="id_donation&amp;nbsp;" style="text;html=1;strokeColor=none;fillColor=none;align=left;verticalAlign=middle;whiteSpace=wrap;rounded=0;fontSize=18;" parent="1" vertex="1">
          <mxGeometry x="-733.5" y="100.5" width="116" height="30" as="geometry" />
        </mxCell>
        <mxCell id="WyrtLwI7qsmNqxNzGDoM-40" value="user_id&amp;nbsp;" style="text;html=1;strokeColor=none;fillColor=none;align=left;verticalAlign=middle;whiteSpace=wrap;rounded=0;fontSize=18;" parent="1" vertex="1">
          <mxGeometry x="-733.5" y="128.5" width="116" height="30" as="geometry" />
        </mxCell>
        <mxCell id="WyrtLwI7qsmNqxNzGDoM-41" value="montant" style="text;html=1;strokeColor=none;fillColor=none;align=left;verticalAlign=middle;whiteSpace=wrap;rounded=0;fontSize=18;" parent="1" vertex="1">
          <mxGeometry x="-733.5" y="149.5" width="116" height="30" as="geometry" />
        </mxCell>
        <mxCell id="WyrtLwI7qsmNqxNzGDoM-42" value="date_donnation" style="text;html=1;strokeColor=none;fillColor=none;align=left;verticalAlign=middle;whiteSpace=wrap;rounded=0;fontSize=15;" parent="1" vertex="1">
          <mxGeometry x="-732.5" y="171.5" width="116" height="30" as="geometry" />
        </mxCell>
        <mxCell id="WyrtLwI7qsmNqxNzGDoM-43" value="méthode_paiement" style="text;html=1;strokeColor=none;fillColor=none;align=left;verticalAlign=middle;whiteSpace=wrap;rounded=0;fontSize=12;" parent="1" vertex="1">
          <mxGeometry x="-733.5" y="195.5" width="116" height="30" as="geometry" />
        </mxCell>
        <mxCell id="WyrtLwI7qsmNqxNzGDoM-44" value="statut_donnation" style="text;html=1;strokeColor=none;fillColor=none;align=left;verticalAlign=middle;whiteSpace=wrap;rounded=0;fontSize=15;" parent="1" vertex="1">
          <mxGeometry x="-733.5" y="218.5" width="116" height="30" as="geometry" />
        </mxCell>
        <mxCell id="WyrtLwI7qsmNqxNzGDoM-50" value="" style="rounded=1;whiteSpace=wrap;html=1;arcSize=0;" parent="1" vertex="1">
          <mxGeometry x="-371" y="94.5" width="126" height="270" as="geometry" />
        </mxCell>
        <mxCell id="WyrtLwI7qsmNqxNzGDoM-51" value="catalog" style="text;html=1;strokeColor=none;fillColor=none;align=center;verticalAlign=middle;whiteSpace=wrap;rounded=0;fontSize=23;" parent="1" vertex="1">
          <mxGeometry x="-371" y="94.5" width="126" height="30" as="geometry" />
        </mxCell>
        <mxCell id="WyrtLwI7qsmNqxNzGDoM-52" value="" style="endArrow=none;html=1;rounded=0;entryX=1;entryY=1;entryDx=0;entryDy=0;exitX=0;exitY=1;exitDx=0;exitDy=0;" parent="1" source="WyrtLwI7qsmNqxNzGDoM-51" target="WyrtLwI7qsmNqxNzGDoM-51" edge="1">
          <mxGeometry width="50" height="50" relative="1" as="geometry">
            <mxPoint x="-305" y="354.5" as="sourcePoint" />
            <mxPoint x="-255" y="304.5" as="targetPoint" />
          </mxGeometry>
        </mxCell>
        <mxCell id="WyrtLwI7qsmNqxNzGDoM-53" value="id_catalogue&amp;nbsp;" style="text;html=1;strokeColor=none;fillColor=none;align=left;verticalAlign=middle;whiteSpace=wrap;rounded=0;fontSize=18;" parent="1" vertex="1">
          <mxGeometry x="-361" y="124.5" width="116" height="30" as="geometry" />
        </mxCell>
        <mxCell id="WyrtLwI7qsmNqxNzGDoM-54" value="image_catalogue" style="text;html=1;strokeColor=none;fillColor=none;align=left;verticalAlign=middle;whiteSpace=wrap;rounded=0;fontSize=14;" parent="1" vertex="1">
          <mxGeometry x="-361" y="150.5" width="116" height="30" as="geometry" />
        </mxCell>
        <mxCell id="WyrtLwI7qsmNqxNzGDoM-55" value="nom" style="text;html=1;strokeColor=none;fillColor=none;align=left;verticalAlign=middle;whiteSpace=wrap;rounded=0;fontSize=18;" parent="1" vertex="1">
          <mxGeometry x="-361" y="172.5" width="116" height="30" as="geometry" />
        </mxCell>
        <mxCell id="WyrtLwI7qsmNqxNzGDoM-56" value="description" style="text;html=1;strokeColor=none;fillColor=none;align=left;verticalAlign=middle;whiteSpace=wrap;rounded=0;fontSize=18;" parent="1" vertex="1">
          <mxGeometry x="-361" y="193.5" width="116" height="30" as="geometry" />
        </mxCell>
        <mxCell id="WyrtLwI7qsmNqxNzGDoM-57" value="type" style="text;html=1;strokeColor=none;fillColor=none;align=left;verticalAlign=middle;whiteSpace=wrap;rounded=0;fontSize=18;" parent="1" vertex="1">
          <mxGeometry x="-361" y="214.5" width="116" height="30" as="geometry" />
        </mxCell>
        <mxCell id="WyrtLwI7qsmNqxNzGDoM-58" value="saison" style="text;html=1;strokeColor=none;fillColor=none;align=left;verticalAlign=middle;whiteSpace=wrap;rounded=0;fontSize=18;" parent="1" vertex="1">
          <mxGeometry x="-361" y="235.5" width="116" height="30" as="geometry" />
        </mxCell>
        <mxCell id="WyrtLwI7qsmNqxNzGDoM-59" value="publish_date" style="text;html=1;strokeColor=none;fillColor=none;align=left;verticalAlign=middle;whiteSpace=wrap;rounded=0;fontSize=18;" parent="1" vertex="1">
          <mxGeometry x="-361" y="260.5" width="116" height="30" as="geometry" />
        </mxCell>
        <mxCell id="WyrtLwI7qsmNqxNzGDoM-60" value="add_date" style="text;html=1;strokeColor=none;fillColor=none;align=left;verticalAlign=middle;whiteSpace=wrap;rounded=0;fontSize=18;" parent="1" vertex="1">
          <mxGeometry x="-361" y="286.5" width="116" height="30" as="geometry" />
        </mxCell>
        <mxCell id="WyrtLwI7qsmNqxNzGDoM-61" value="likes" style="text;html=1;strokeColor=none;fillColor=none;align=left;verticalAlign=middle;whiteSpace=wrap;rounded=0;fontSize=18;" parent="1" vertex="1">
          <mxGeometry x="-361" y="307.5" width="116" height="30" as="geometry" />
        </mxCell>
        <mxCell id="WyrtLwI7qsmNqxNzGDoM-62" value="brouillon" style="text;html=1;strokeColor=none;fillColor=none;align=left;verticalAlign=middle;whiteSpace=wrap;rounded=0;fontSize=18;" parent="1" vertex="1">
          <mxGeometry x="-361" y="330.5" width="116" height="30" as="geometry" />
        </mxCell>
        <mxCell id="WyrtLwI7qsmNqxNzGDoM-64" value="" style="rounded=1;whiteSpace=wrap;html=1;arcSize=0;" parent="1" vertex="1">
          <mxGeometry x="-145" width="126" height="115" as="geometry" />
        </mxCell>
        <mxCell id="WyrtLwI7qsmNqxNzGDoM-65" value="catalog_alias" style="text;html=1;strokeColor=none;fillColor=none;align=center;verticalAlign=middle;whiteSpace=wrap;rounded=0;fontSize=19;" parent="1" vertex="1">
          <mxGeometry x="-145" width="126" height="30" as="geometry" />
        </mxCell>
        <mxCell id="WyrtLwI7qsmNqxNzGDoM-66" value="" style="endArrow=none;html=1;rounded=0;entryX=1;entryY=1;entryDx=0;entryDy=0;exitX=0;exitY=1;exitDx=0;exitDy=0;" parent="1" source="WyrtLwI7qsmNqxNzGDoM-65" target="WyrtLwI7qsmNqxNzGDoM-65" edge="1">
          <mxGeometry width="50" height="50" relative="1" as="geometry">
            <mxPoint x="-79" y="260" as="sourcePoint" />
            <mxPoint x="-29" y="210" as="targetPoint" />
          </mxGeometry>
        </mxCell>
        <mxCell id="WyrtLwI7qsmNqxNzGDoM-67" value="id_catalog_alias" style="text;html=1;strokeColor=none;fillColor=none;align=left;verticalAlign=middle;whiteSpace=wrap;rounded=0;fontSize=15;" parent="1" vertex="1">
          <mxGeometry x="-135" y="31" width="116" height="30" as="geometry" />
        </mxCell>
        <mxCell id="WyrtLwI7qsmNqxNzGDoM-68" value="aliasName" style="text;html=1;strokeColor=none;fillColor=none;align=left;verticalAlign=middle;whiteSpace=wrap;rounded=0;fontSize=18;" parent="1" vertex="1">
          <mxGeometry x="-135" y="58" width="116" height="30" as="geometry" />
        </mxCell>
        <mxCell id="WyrtLwI7qsmNqxNzGDoM-69" value="catalog_id&amp;nbsp;" style="text;html=1;strokeColor=none;fillColor=none;align=left;verticalAlign=middle;whiteSpace=wrap;rounded=0;fontSize=18;" parent="1" vertex="1">
          <mxGeometry x="-135" y="82" width="116" height="30" as="geometry" />
        </mxCell>
        <mxCell id="WyrtLwI7qsmNqxNzGDoM-70" value="" style="rounded=1;whiteSpace=wrap;html=1;arcSize=0;" parent="1" vertex="1">
          <mxGeometry x="-557" y="1.5" width="126" height="115" as="geometry" />
        </mxCell>
        <mxCell id="WyrtLwI7qsmNqxNzGDoM-71" value="catalog_type&amp;nbsp;" style="text;html=1;strokeColor=none;fillColor=none;align=center;verticalAlign=middle;whiteSpace=wrap;rounded=0;fontSize=19;" parent="1" vertex="1">
          <mxGeometry x="-557" y="1.5" width="126" height="30" as="geometry" />
        </mxCell>
        <mxCell id="WyrtLwI7qsmNqxNzGDoM-72" value="" style="endArrow=none;html=1;rounded=0;entryX=1;entryY=1;entryDx=0;entryDy=0;exitX=0;exitY=1;exitDx=0;exitDy=0;" parent="1" source="WyrtLwI7qsmNqxNzGDoM-71" target="WyrtLwI7qsmNqxNzGDoM-71" edge="1">
          <mxGeometry width="50" height="50" relative="1" as="geometry">
            <mxPoint x="-491" y="261.5" as="sourcePoint" />
            <mxPoint x="-441" y="211.5" as="targetPoint" />
          </mxGeometry>
        </mxCell>
        <mxCell id="WyrtLwI7qsmNqxNzGDoM-73" value="id_catalog_type&amp;nbsp;" style="text;html=1;strokeColor=none;fillColor=none;align=left;verticalAlign=middle;whiteSpace=wrap;rounded=0;fontSize=15;" parent="1" vertex="1">
          <mxGeometry x="-547" y="32.5" width="116" height="30" as="geometry" />
        </mxCell>
        <mxCell id="WyrtLwI7qsmNqxNzGDoM-74" value="type" style="text;html=1;strokeColor=none;fillColor=none;align=left;verticalAlign=middle;whiteSpace=wrap;rounded=0;fontSize=18;" parent="1" vertex="1">
          <mxGeometry x="-547" y="59.5" width="116" height="30" as="geometry" />
        </mxCell>
        <mxCell id="WyrtLwI7qsmNqxNzGDoM-75" value="catalog_id&amp;nbsp;" style="text;html=1;strokeColor=none;fillColor=none;align=left;verticalAlign=middle;whiteSpace=wrap;rounded=0;fontSize=18;" parent="1" vertex="1">
          <mxGeometry x="-547" y="83.5" width="116" height="30" as="geometry" />
        </mxCell>
        <mxCell id="WyrtLwI7qsmNqxNzGDoM-76" value="" style="rounded=1;whiteSpace=wrap;html=1;arcSize=0;" parent="1" vertex="1">
          <mxGeometry x="-60" y="137" width="126" height="225" as="geometry" />
        </mxCell>
        <mxCell id="WyrtLwI7qsmNqxNzGDoM-77" value="catalog_brouillon" style="text;html=1;strokeColor=none;fillColor=none;align=center;verticalAlign=middle;whiteSpace=wrap;rounded=0;fontSize=14;" parent="1" vertex="1">
          <mxGeometry x="-60" y="137" width="126" height="30" as="geometry" />
        </mxCell>
        <mxCell id="WyrtLwI7qsmNqxNzGDoM-78" value="" style="endArrow=none;html=1;rounded=0;entryX=1;entryY=1;entryDx=0;entryDy=0;exitX=0;exitY=1;exitDx=0;exitDy=0;" parent="1" source="WyrtLwI7qsmNqxNzGDoM-77" target="WyrtLwI7qsmNqxNzGDoM-77" edge="1">
          <mxGeometry width="50" height="50" relative="1" as="geometry">
            <mxPoint x="6" y="397" as="sourcePoint" />
            <mxPoint x="56" y="347" as="targetPoint" />
          </mxGeometry>
        </mxCell>
        <mxCell id="WyrtLwI7qsmNqxNzGDoM-79" value="catalog_id&amp;nbsp;" style="text;html=1;strokeColor=none;fillColor=none;align=left;verticalAlign=middle;whiteSpace=wrap;rounded=0;fontSize=18;" parent="1" vertex="1">
          <mxGeometry x="-50" y="167" width="116" height="30" as="geometry" />
        </mxCell>
        <mxCell id="WyrtLwI7qsmNqxNzGDoM-80" value="image_catalogue" style="text;html=1;strokeColor=none;fillColor=none;align=left;verticalAlign=middle;whiteSpace=wrap;rounded=0;fontSize=14;" parent="1" vertex="1">
          <mxGeometry x="-50" y="193" width="116" height="30" as="geometry" />
        </mxCell>
        <mxCell id="WyrtLwI7qsmNqxNzGDoM-81" value="nom" style="text;html=1;strokeColor=none;fillColor=none;align=left;verticalAlign=middle;whiteSpace=wrap;rounded=0;fontSize=18;" parent="1" vertex="1">
          <mxGeometry x="-50" y="215" width="116" height="30" as="geometry" />
        </mxCell>
        <mxCell id="WyrtLwI7qsmNqxNzGDoM-82" value="description" style="text;html=1;strokeColor=none;fillColor=none;align=left;verticalAlign=middle;whiteSpace=wrap;rounded=0;fontSize=18;" parent="1" vertex="1">
          <mxGeometry x="-50" y="236" width="116" height="30" as="geometry" />
        </mxCell>
        <mxCell id="WyrtLwI7qsmNqxNzGDoM-83" value="type" style="text;html=1;strokeColor=none;fillColor=none;align=left;verticalAlign=middle;whiteSpace=wrap;rounded=0;fontSize=18;" parent="1" vertex="1">
          <mxGeometry x="-50" y="257" width="116" height="30" as="geometry" />
        </mxCell>
        <mxCell id="WyrtLwI7qsmNqxNzGDoM-84" value="saison" style="text;html=1;strokeColor=none;fillColor=none;align=left;verticalAlign=middle;whiteSpace=wrap;rounded=0;fontSize=18;" parent="1" vertex="1">
          <mxGeometry x="-50" y="278" width="116" height="30" as="geometry" />
        </mxCell>
        <mxCell id="WyrtLwI7qsmNqxNzGDoM-85" value="publish_date" style="text;html=1;strokeColor=none;fillColor=none;align=left;verticalAlign=middle;whiteSpace=wrap;rounded=0;fontSize=18;" parent="1" vertex="1">
          <mxGeometry x="-50" y="303" width="116" height="30" as="geometry" />
        </mxCell>
        <mxCell id="WyrtLwI7qsmNqxNzGDoM-86" value="add_date" style="text;html=1;strokeColor=none;fillColor=none;align=left;verticalAlign=middle;whiteSpace=wrap;rounded=0;fontSize=18;" parent="1" vertex="1">
          <mxGeometry x="-50" y="329" width="116" height="30" as="geometry" />
        </mxCell>
        <mxCell id="WyrtLwI7qsmNqxNzGDoM-100" value="" style="rounded=1;whiteSpace=wrap;html=1;arcSize=50;" parent="1" vertex="1">
          <mxGeometry x="-580" y="479" width="170" height="94" as="geometry" />
        </mxCell>
        <mxCell id="WyrtLwI7qsmNqxNzGDoM-104" value="" style="endArrow=none;html=1;rounded=0;entryX=0.981;entryY=0.301;entryDx=0;entryDy=0;entryPerimeter=0;exitX=0.02;exitY=0.303;exitDx=0;exitDy=0;exitPerimeter=0;" parent="1" source="WyrtLwI7qsmNqxNzGDoM-100" target="WyrtLwI7qsmNqxNzGDoM-100" edge="1">
          <mxGeometry width="50" height="50" relative="1" as="geometry">
            <mxPoint x="-610" y="521" as="sourcePoint" />
            <mxPoint x="-630" y="489" as="targetPoint" />
          </mxGeometry>
        </mxCell>
        <mxCell id="WyrtLwI7qsmNqxNzGDoM-105" value="catalog_progression&amp;nbsp;" style="text;html=1;strokeColor=none;fillColor=none;align=center;verticalAlign=middle;whiteSpace=wrap;rounded=0;fontSize=12;" parent="1" vertex="1">
          <mxGeometry x="-557" y="487" width="130" height="20" as="geometry" />
        </mxCell>
        <mxCell id="WyrtLwI7qsmNqxNzGDoM-106" value="id_catalog_progression&amp;nbsp;" style="text;html=1;strokeColor=none;fillColor=none;align=left;verticalAlign=middle;whiteSpace=wrap;rounded=0;fontSize=11;" parent="1" vertex="1">
          <mxGeometry x="-550" y="504" width="50" height="22" as="geometry" />
        </mxCell>
        <mxCell id="WyrtLwI7qsmNqxNzGDoM-107" value="catalog_id&amp;nbsp;" style="text;html=1;strokeColor=none;fillColor=none;align=left;verticalAlign=middle;whiteSpace=wrap;rounded=0;fontSize=11;" parent="1" vertex="1">
          <mxGeometry x="-550" y="529" width="87" height="20" as="geometry" />
        </mxCell>
        <mxCell id="WyrtLwI7qsmNqxNzGDoM-108" value="etat" style="text;html=1;strokeColor=none;fillColor=none;align=left;verticalAlign=middle;whiteSpace=wrap;rounded=0;fontSize=11;" parent="1" vertex="1">
          <mxGeometry x="-550" y="540" width="27" height="20" as="geometry" />
        </mxCell>
        <mxCell id="WyrtLwI7qsmNqxNzGDoM-109" value="visible" style="text;html=1;strokeColor=none;fillColor=none;align=left;verticalAlign=middle;whiteSpace=wrap;rounded=0;fontSize=11;" parent="1" vertex="1">
          <mxGeometry x="-550" y="552" width="47" height="20" as="geometry" />
        </mxCell>
        <mxCell id="WyrtLwI7qsmNqxNzGDoM-111" value="" style="rounded=1;whiteSpace=wrap;html=1;arcSize=0;" parent="1" vertex="1">
          <mxGeometry x="100" y="1.5" width="126" height="115" as="geometry" />
        </mxCell>
        <mxCell id="WyrtLwI7qsmNqxNzGDoM-112" value="catalog_alias_brouillon" style="text;html=1;strokeColor=none;fillColor=none;align=center;verticalAlign=middle;whiteSpace=wrap;rounded=0;fontSize=11;" parent="1" vertex="1">
          <mxGeometry x="100" y="1.5" width="126" height="30" as="geometry" />
        </mxCell>
        <mxCell id="WyrtLwI7qsmNqxNzGDoM-113" value="" style="endArrow=none;html=1;rounded=0;entryX=1;entryY=1;entryDx=0;entryDy=0;exitX=0;exitY=1;exitDx=0;exitDy=0;" parent="1" source="WyrtLwI7qsmNqxNzGDoM-112" target="WyrtLwI7qsmNqxNzGDoM-112" edge="1">
          <mxGeometry width="50" height="50" relative="1" as="geometry">
            <mxPoint x="166" y="261.5" as="sourcePoint" />
            <mxPoint x="216" y="211.5" as="targetPoint" />
          </mxGeometry>
        </mxCell>
        <mxCell id="WyrtLwI7qsmNqxNzGDoM-114" value="id_catalog_alias_brouillon" style="text;html=1;strokeColor=none;fillColor=none;align=left;verticalAlign=middle;whiteSpace=wrap;rounded=0;fontSize=9;" parent="1" vertex="1">
          <mxGeometry x="110" y="32.5" width="116" height="30" as="geometry" />
        </mxCell>
        <mxCell id="WyrtLwI7qsmNqxNzGDoM-115" value="aliasName" style="text;html=1;strokeColor=none;fillColor=none;align=left;verticalAlign=middle;whiteSpace=wrap;rounded=0;fontSize=18;" parent="1" vertex="1">
          <mxGeometry x="110" y="59.5" width="116" height="30" as="geometry" />
        </mxCell>
        <mxCell id="WyrtLwI7qsmNqxNzGDoM-116" value="catalog_id&amp;nbsp;" style="text;html=1;strokeColor=none;fillColor=none;align=left;verticalAlign=middle;whiteSpace=wrap;rounded=0;fontSize=18;" parent="1" vertex="1">
          <mxGeometry x="110" y="83.5" width="116" height="30" as="geometry" />
        </mxCell>
        <mxCell id="WyrtLwI7qsmNqxNzGDoM-128" value="" style="rounded=1;whiteSpace=wrap;html=1;arcSize=50;" parent="1" vertex="1">
          <mxGeometry x="-607" y="322" width="220" height="133" as="geometry" />
        </mxCell>
        <mxCell id="WyrtLwI7qsmNqxNzGDoM-129" value="" style="endArrow=none;html=1;rounded=0;exitX=0.068;exitY=0.186;exitDx=0;exitDy=0;entryX=0.939;entryY=0.204;entryDx=0;entryDy=0;entryPerimeter=0;exitPerimeter=0;" parent="1" source="WyrtLwI7qsmNqxNzGDoM-128" edge="1">
          <mxGeometry width="50" height="50" relative="1" as="geometry">
            <mxPoint x="-591.28" y="346.6" as="sourcePoint" />
            <mxPoint x="-401.41999999999996" y="347.2120000000001" as="targetPoint" />
          </mxGeometry>
        </mxCell>
        <mxCell id="WyrtLwI7qsmNqxNzGDoM-130" value="user_episode_views&amp;nbsp;" style="text;html=1;strokeColor=none;fillColor=none;align=center;verticalAlign=middle;whiteSpace=wrap;rounded=0;" parent="1" vertex="1">
          <mxGeometry x="-557" y="322" width="120" height="23" as="geometry" />
        </mxCell>
        <mxCell id="WyrtLwI7qsmNqxNzGDoM-131" value="id_user_episode_views&amp;nbsp;" style="text;html=1;strokeColor=none;fillColor=none;align=left;verticalAlign=middle;whiteSpace=wrap;rounded=0;fontSize=12;" parent="1" vertex="1">
          <mxGeometry x="-563" y="347" width="120" height="15" as="geometry" />
        </mxCell>
        <mxCell id="WyrtLwI7qsmNqxNzGDoM-133" value="user_id&amp;nbsp;" style="text;html=1;strokeColor=none;fillColor=none;align=left;verticalAlign=middle;whiteSpace=wrap;rounded=0;" parent="1" vertex="1">
          <mxGeometry x="-563" y="361" width="120" height="15" as="geometry" />
        </mxCell>
        <mxCell id="WyrtLwI7qsmNqxNzGDoM-134" value="episode_id&amp;nbsp;" style="text;html=1;strokeColor=none;fillColor=none;align=left;verticalAlign=middle;whiteSpace=wrap;rounded=0;" parent="1" vertex="1">
          <mxGeometry x="-563" y="374" width="120" height="15" as="geometry" />
        </mxCell>
        <mxCell id="WyrtLwI7qsmNqxNzGDoM-135" value="episode_catalog_id&amp;nbsp;" style="text;html=1;strokeColor=none;fillColor=none;align=left;verticalAlign=middle;whiteSpace=wrap;rounded=0;" parent="1" vertex="1">
          <mxGeometry x="-563" y="388" width="120" height="15" as="geometry" />
        </mxCell>
        <mxCell id="WyrtLwI7qsmNqxNzGDoM-136" value="first_seen" style="text;html=1;strokeColor=none;fillColor=none;align=left;verticalAlign=middle;whiteSpace=wrap;rounded=0;" parent="1" vertex="1">
          <mxGeometry x="-563" y="401" width="120" height="15" as="geometry" />
        </mxCell>
        <mxCell id="WyrtLwI7qsmNqxNzGDoM-137" value="last_edited" style="text;html=1;strokeColor=none;fillColor=none;align=left;verticalAlign=middle;whiteSpace=wrap;rounded=0;" parent="1" vertex="1">
          <mxGeometry x="-563" y="418" width="120" height="15" as="geometry" />
        </mxCell>
        <mxCell id="WyrtLwI7qsmNqxNzGDoM-138" value="views_active" style="text;html=1;strokeColor=none;fillColor=none;align=left;verticalAlign=middle;whiteSpace=wrap;rounded=0;" parent="1" vertex="1">
          <mxGeometry x="-563" y="436" width="120" height="15" as="geometry" />
        </mxCell>
        <mxCell id="WyrtLwI7qsmNqxNzGDoM-139" value="" style="rounded=1;whiteSpace=wrap;html=1;arcSize=0;" parent="1" vertex="1">
          <mxGeometry x="-1139" y="495" width="126" height="182" as="geometry" />
        </mxCell>
        <mxCell id="WyrtLwI7qsmNqxNzGDoM-140" value="user_image" style="text;html=1;strokeColor=none;fillColor=none;align=center;verticalAlign=middle;whiteSpace=wrap;rounded=0;fontSize=21;" parent="1" vertex="1">
          <mxGeometry x="-1139" y="495" width="126" height="30" as="geometry" />
        </mxCell>
        <mxCell id="WyrtLwI7qsmNqxNzGDoM-141" value="" style="endArrow=none;html=1;rounded=0;entryX=1;entryY=1;entryDx=0;entryDy=0;exitX=0;exitY=1;exitDx=0;exitDy=0;" parent="1" source="WyrtLwI7qsmNqxNzGDoM-140" target="WyrtLwI7qsmNqxNzGDoM-140" edge="1">
          <mxGeometry width="50" height="50" relative="1" as="geometry">
            <mxPoint x="-1073" y="755" as="sourcePoint" />
            <mxPoint x="-1023" y="705" as="targetPoint" />
          </mxGeometry>
        </mxCell>
        <mxCell id="WyrtLwI7qsmNqxNzGDoM-142" value="id_user_image&amp;nbsp;" style="text;html=1;strokeColor=none;fillColor=none;align=left;verticalAlign=middle;whiteSpace=wrap;rounded=0;fontSize=16;" parent="1" vertex="1">
          <mxGeometry x="-1129" y="525" width="116" height="30" as="geometry" />
        </mxCell>
        <mxCell id="WyrtLwI7qsmNqxNzGDoM-143" value="user_id&amp;nbsp;" style="text;html=1;strokeColor=none;fillColor=none;align=left;verticalAlign=middle;whiteSpace=wrap;rounded=0;fontSize=14;" parent="1" vertex="1">
          <mxGeometry x="-1129" y="551" width="116" height="30" as="geometry" />
        </mxCell>
        <mxCell id="WyrtLwI7qsmNqxNzGDoM-144" value="user_image" style="text;html=1;strokeColor=none;fillColor=none;align=left;verticalAlign=middle;whiteSpace=wrap;rounded=0;fontSize=18;" parent="1" vertex="1">
          <mxGeometry x="-1129" y="575" width="116" height="30" as="geometry" />
        </mxCell>
        <mxCell id="WyrtLwI7qsmNqxNzGDoM-145" value="image_type" style="text;html=1;strokeColor=none;fillColor=none;align=left;verticalAlign=middle;whiteSpace=wrap;rounded=0;fontSize=18;" parent="1" vertex="1">
          <mxGeometry x="-1129" y="599" width="116" height="30" as="geometry" />
        </mxCell>
        <mxCell id="WyrtLwI7qsmNqxNzGDoM-146" value="created_at" style="text;html=1;strokeColor=none;fillColor=none;align=left;verticalAlign=middle;whiteSpace=wrap;rounded=0;fontSize=18;" parent="1" vertex="1">
          <mxGeometry x="-1129" y="620" width="116" height="30" as="geometry" />
        </mxCell>
        <mxCell id="WyrtLwI7qsmNqxNzGDoM-147" value="image_active" style="text;html=1;strokeColor=none;fillColor=none;align=left;verticalAlign=middle;whiteSpace=wrap;rounded=0;fontSize=18;" parent="1" vertex="1">
          <mxGeometry x="-1129" y="642" width="116" height="30" as="geometry" />
        </mxCell>
        <mxCell id="WyrtLwI7qsmNqxNzGDoM-152" value="" style="rounded=1;whiteSpace=wrap;html=1;arcSize=50;" parent="1" vertex="1">
          <mxGeometry x="-587" y="162.5" width="168" height="123" as="geometry" />
        </mxCell>
        <mxCell id="WyrtLwI7qsmNqxNzGDoM-153" value="" style="endArrow=none;html=1;rounded=0;exitX=0.076;exitY=0.2;exitDx=0;exitDy=0;exitPerimeter=0;entryX=1.004;entryY=-0.232;entryDx=0;entryDy=0;entryPerimeter=0;" parent="1" target="WyrtLwI7qsmNqxNzGDoM-155" edge="1">
          <mxGeometry width="50" height="50" relative="1" as="geometry">
            <mxPoint x="-572.28" y="184.10000000000002" as="sourcePoint" />
            <mxPoint x="-380.86000000000007" y="184.6400000000001" as="targetPoint" />
          </mxGeometry>
        </mxCell>
        <mxCell id="WyrtLwI7qsmNqxNzGDoM-154" value="likes" style="text;html=1;strokeColor=none;fillColor=none;align=center;verticalAlign=middle;whiteSpace=wrap;rounded=0;" parent="1" vertex="1">
          <mxGeometry x="-563" y="162.5" width="120" height="23" as="geometry" />
        </mxCell>
        <mxCell id="WyrtLwI7qsmNqxNzGDoM-155" value="id_likes&amp;nbsp;" style="text;html=1;strokeColor=none;fillColor=none;align=left;verticalAlign=middle;whiteSpace=wrap;rounded=0;fontSize=12;" parent="1" vertex="1">
          <mxGeometry x="-554" y="186.5" width="120" height="15" as="geometry" />
        </mxCell>
        <mxCell id="WyrtLwI7qsmNqxNzGDoM-156" value="user_id&amp;nbsp;" style="text;html=1;strokeColor=none;fillColor=none;align=left;verticalAlign=middle;whiteSpace=wrap;rounded=0;" parent="1" vertex="1">
          <mxGeometry x="-554" y="203.5" width="120" height="15" as="geometry" />
        </mxCell>
        <mxCell id="WyrtLwI7qsmNqxNzGDoM-157" value="catalog_id&amp;nbsp;" style="text;html=1;strokeColor=none;fillColor=none;align=left;verticalAlign=middle;whiteSpace=wrap;rounded=0;" parent="1" vertex="1">
          <mxGeometry x="-554" y="218.5" width="120" height="15" as="geometry" />
        </mxCell>
        <mxCell id="WyrtLwI7qsmNqxNzGDoM-158" value="created_at" style="text;html=1;strokeColor=none;fillColor=none;align=left;verticalAlign=middle;whiteSpace=wrap;rounded=0;" parent="1" vertex="1">
          <mxGeometry x="-554" y="232.5" width="120" height="15" as="geometry" />
        </mxCell>
        <mxCell id="WyrtLwI7qsmNqxNzGDoM-159" value="last_edited" style="text;html=1;strokeColor=none;fillColor=none;align=left;verticalAlign=middle;whiteSpace=wrap;rounded=0;" parent="1" vertex="1">
          <mxGeometry x="-554" y="248.5" width="120" height="15" as="geometry" />
        </mxCell>
        <mxCell id="WyrtLwI7qsmNqxNzGDoM-160" value="like_active" style="text;html=1;strokeColor=none;fillColor=none;align=left;verticalAlign=middle;whiteSpace=wrap;rounded=0;" parent="1" vertex="1">
          <mxGeometry x="-554" y="263.5" width="120" height="15" as="geometry" />
        </mxCell>
        <mxCell id="WyrtLwI7qsmNqxNzGDoM-168" value="" style="rounded=1;whiteSpace=wrap;html=1;arcSize=0;" parent="1" vertex="1">
          <mxGeometry x="-55" y="412" width="126" height="115" as="geometry" />
        </mxCell>
        <mxCell id="WyrtLwI7qsmNqxNzGDoM-169" value="catalog_collections" style="text;html=1;strokeColor=none;fillColor=none;align=center;verticalAlign=middle;whiteSpace=wrap;rounded=0;fontSize=13;" parent="1" vertex="1">
          <mxGeometry x="-55" y="412" width="126" height="30" as="geometry" />
        </mxCell>
        <mxCell id="WyrtLwI7qsmNqxNzGDoM-170" value="" style="endArrow=none;html=1;rounded=0;entryX=1;entryY=1;entryDx=0;entryDy=0;exitX=0;exitY=1;exitDx=0;exitDy=0;" parent="1" source="WyrtLwI7qsmNqxNzGDoM-169" target="WyrtLwI7qsmNqxNzGDoM-169" edge="1">
          <mxGeometry width="50" height="50" relative="1" as="geometry">
            <mxPoint x="11" y="672" as="sourcePoint" />
            <mxPoint x="61" y="622" as="targetPoint" />
          </mxGeometry>
        </mxCell>
        <mxCell id="WyrtLwI7qsmNqxNzGDoM-171" value="id_collections&amp;nbsp;" style="text;html=1;strokeColor=none;fillColor=none;align=left;verticalAlign=middle;whiteSpace=wrap;rounded=0;fontSize=15;" parent="1" vertex="1">
          <mxGeometry x="-45" y="443" width="116" height="30" as="geometry" />
        </mxCell>
        <mxCell id="WyrtLwI7qsmNqxNzGDoM-172" value="collections_name" style="text;html=1;strokeColor=none;fillColor=none;align=left;verticalAlign=middle;whiteSpace=wrap;rounded=0;fontSize=14;" parent="1" vertex="1">
          <mxGeometry x="-45" y="470" width="116" height="30" as="geometry" />
        </mxCell>
        <mxCell id="WyrtLwI7qsmNqxNzGDoM-173" value="catalog_id&amp;nbsp;" style="text;html=1;strokeColor=none;fillColor=none;align=left;verticalAlign=middle;whiteSpace=wrap;rounded=0;fontSize=18;" parent="1" vertex="1">
          <mxGeometry x="-45" y="494" width="116" height="30" as="geometry" />
        </mxCell>
        <mxCell id="WyrtLwI7qsmNqxNzGDoM-174" value="" style="rounded=1;whiteSpace=wrap;html=1;arcSize=50;" parent="1" vertex="1">
          <mxGeometry x="-1002" y="499" width="168" height="100" as="geometry" />
        </mxCell>
        <mxCell id="WyrtLwI7qsmNqxNzGDoM-175" value="" style="endArrow=none;html=1;rounded=0;entryX=0.966;entryY=0.224;entryDx=0;entryDy=0;entryPerimeter=0;" parent="1" edge="1">
          <mxGeometry width="50" height="50" relative="1" as="geometry">
            <mxPoint x="-992" y="519" as="sourcePoint" />
            <mxPoint x="-843.712" y="519.1600000000001" as="targetPoint" />
          </mxGeometry>
        </mxCell>
        <mxCell id="WyrtLwI7qsmNqxNzGDoM-176" value="user_collection" style="text;html=1;strokeColor=none;fillColor=none;align=center;verticalAlign=middle;whiteSpace=wrap;rounded=0;" parent="1" vertex="1">
          <mxGeometry x="-978" y="499" width="120" height="23" as="geometry" />
        </mxCell>
        <mxCell id="WyrtLwI7qsmNqxNzGDoM-177" value="id_user_collection&amp;nbsp;" style="text;html=1;strokeColor=none;fillColor=none;align=left;verticalAlign=middle;whiteSpace=wrap;rounded=0;fontSize=12;" parent="1" vertex="1">
          <mxGeometry x="-969" y="523" width="120" height="15" as="geometry" />
        </mxCell>
        <mxCell id="WyrtLwI7qsmNqxNzGDoM-178" value="user_id&amp;nbsp;" style="text;html=1;strokeColor=none;fillColor=none;align=left;verticalAlign=middle;whiteSpace=wrap;rounded=0;" parent="1" vertex="1">
          <mxGeometry x="-969" y="540" width="120" height="15" as="geometry" />
        </mxCell>
        <mxCell id="WyrtLwI7qsmNqxNzGDoM-179" value="chibi_id&amp;nbsp;" style="text;html=1;strokeColor=none;fillColor=none;align=left;verticalAlign=middle;whiteSpace=wrap;rounded=0;" parent="1" vertex="1">
          <mxGeometry x="-969" y="555" width="120" height="15" as="geometry" />
        </mxCell>
        <mxCell id="WyrtLwI7qsmNqxNzGDoM-180" value="date_obtention" style="text;html=1;strokeColor=none;fillColor=none;align=left;verticalAlign=middle;whiteSpace=wrap;rounded=0;" parent="1" vertex="1">
          <mxGeometry x="-969" y="569" width="120" height="15" as="geometry" />
        </mxCell>
        <mxCell id="WyrtLwI7qsmNqxNzGDoM-183" value="user_collection_actif" style="text;html=1;strokeColor=none;fillColor=none;align=left;verticalAlign=middle;whiteSpace=wrap;rounded=0;fontSize=10;" parent="1" vertex="1">
          <mxGeometry x="-970" y="582" width="120" height="15" as="geometry" />
        </mxCell>
        <mxCell id="WyrtLwI7qsmNqxNzGDoM-184" value="" style="rounded=1;whiteSpace=wrap;html=1;arcSize=0;" parent="1" vertex="1">
          <mxGeometry x="-981" y="634.5" width="126" height="160" as="geometry" />
        </mxCell>
        <mxCell id="WyrtLwI7qsmNqxNzGDoM-185" value="chibi" style="text;html=1;strokeColor=none;fillColor=none;align=center;verticalAlign=middle;whiteSpace=wrap;rounded=0;fontSize=23;" parent="1" vertex="1">
          <mxGeometry x="-981" y="634.5" width="126" height="30" as="geometry" />
        </mxCell>
        <mxCell id="WyrtLwI7qsmNqxNzGDoM-186" value="" style="endArrow=none;html=1;rounded=0;entryX=1;entryY=1;entryDx=0;entryDy=0;exitX=0;exitY=1;exitDx=0;exitDy=0;" parent="1" source="WyrtLwI7qsmNqxNzGDoM-185" target="WyrtLwI7qsmNqxNzGDoM-185" edge="1">
          <mxGeometry width="50" height="50" relative="1" as="geometry">
            <mxPoint x="-934" y="891" as="sourcePoint" />
            <mxPoint x="-884" y="841" as="targetPoint" />
          </mxGeometry>
        </mxCell>
        <mxCell id="WyrtLwI7qsmNqxNzGDoM-187" value="id_chibi&amp;nbsp;" style="text;html=1;strokeColor=none;fillColor=none;align=left;verticalAlign=middle;whiteSpace=wrap;rounded=0;fontSize=18;" parent="1" vertex="1">
          <mxGeometry x="-970" y="664.5" width="116" height="30" as="geometry" />
        </mxCell>
        <mxCell id="WyrtLwI7qsmNqxNzGDoM-188" value="nom&amp;nbsp;" style="text;html=1;strokeColor=none;fillColor=none;align=left;verticalAlign=middle;whiteSpace=wrap;rounded=0;fontSize=18;" parent="1" vertex="1">
          <mxGeometry x="-971" y="689" width="116" height="30" as="geometry" />
        </mxCell>
        <mxCell id="WyrtLwI7qsmNqxNzGDoM-189" value="chibi_img" style="text;html=1;strokeColor=none;fillColor=none;align=left;verticalAlign=middle;whiteSpace=wrap;rounded=0;fontSize=18;" parent="1" vertex="1">
          <mxGeometry x="-972" y="711" width="116" height="30" as="geometry" />
        </mxCell>
        <mxCell id="WyrtLwI7qsmNqxNzGDoM-190" value="recompense" style="text;html=1;strokeColor=none;fillColor=none;align=left;verticalAlign=middle;whiteSpace=wrap;rounded=0;fontSize=18;" parent="1" vertex="1">
          <mxGeometry x="-971" y="739" width="116" height="30" as="geometry" />
        </mxCell>
        <mxCell id="WyrtLwI7qsmNqxNzGDoM-191" value="chibi_active" style="text;html=1;strokeColor=none;fillColor=none;align=left;verticalAlign=middle;whiteSpace=wrap;rounded=0;fontSize=18;" parent="1" vertex="1">
          <mxGeometry x="-972" y="763.5" width="116" height="30" as="geometry" />
        </mxCell>
        <mxCell id="WyrtLwI7qsmNqxNzGDoM-192" value="possède" style="ellipse;whiteSpace=wrap;html=1;aspect=fixed;" parent="1" vertex="1">
          <mxGeometry x="-945" y="320" width="40" height="40" as="geometry" />
        </mxCell>
        <mxCell id="WyrtLwI7qsmNqxNzGDoM-193" value="" style="endArrow=none;html=1;rounded=0;entryX=1;entryY=0.5;entryDx=0;entryDy=0;exitX=0.001;exitY=0.169;exitDx=0;exitDy=0;exitPerimeter=0;" parent="1" source="tmT9E7BbvO8NceiwNoCN-1" target="WyrtLwI7qsmNqxNzGDoM-192" edge="1">
          <mxGeometry width="50" height="50" relative="1" as="geometry">
            <mxPoint x="-619" y="451" as="sourcePoint" />
            <mxPoint x="-569" y="401" as="targetPoint" />
          </mxGeometry>
        </mxCell>
        <mxCell id="WyrtLwI7qsmNqxNzGDoM-194" value="" style="endArrow=none;html=1;rounded=0;entryX=1;entryY=0.5;entryDx=0;entryDy=0;exitX=0;exitY=0.5;exitDx=0;exitDy=0;" parent="1" source="WyrtLwI7qsmNqxNzGDoM-192" target="WyrtLwI7qsmNqxNzGDoM-16" edge="1">
          <mxGeometry width="50" height="50" relative="1" as="geometry">
            <mxPoint x="-949" y="610" as="sourcePoint" />
            <mxPoint x="-1279" y="500" as="targetPoint" />
          </mxGeometry>
        </mxCell>
        <mxCell id="WyrtLwI7qsmNqxNzGDoM-195" value="1,n" style="text;html=1;strokeColor=none;fillColor=none;align=center;verticalAlign=middle;whiteSpace=wrap;rounded=0;fontSize=15;" parent="1" vertex="1">
          <mxGeometry x="-889" y="318" width="60" height="23" as="geometry" />
        </mxCell>
        <mxCell id="WyrtLwI7qsmNqxNzGDoM-196" value="1,1" style="text;html=1;strokeColor=none;fillColor=none;align=center;verticalAlign=middle;whiteSpace=wrap;rounded=0;fontSize=15;" parent="1" vertex="1">
          <mxGeometry x="-1029" y="319" width="60" height="23" as="geometry" />
        </mxCell>
        <mxCell id="WyrtLwI7qsmNqxNzGDoM-197" value="" style="ellipse;whiteSpace=wrap;html=1;aspect=fixed;" parent="1" vertex="1">
          <mxGeometry x="-950" y="223" width="40" height="40" as="geometry" />
        </mxCell>
        <mxCell id="WyrtLwI7qsmNqxNzGDoM-198" value="" style="endArrow=none;html=1;rounded=0;entryX=0.5;entryY=1;entryDx=0;entryDy=0;exitX=0;exitY=0.166;exitDx=0;exitDy=0;exitPerimeter=0;" parent="1" source="tmT9E7BbvO8NceiwNoCN-1" target="WyrtLwI7qsmNqxNzGDoM-197" edge="1">
          <mxGeometry width="50" height="50" relative="1" as="geometry">
            <mxPoint x="-809" y="341" as="sourcePoint" />
            <mxPoint x="-899" y="351" as="targetPoint" />
          </mxGeometry>
        </mxCell>
        <mxCell id="WyrtLwI7qsmNqxNzGDoM-199" value="" style="endArrow=none;html=1;rounded=0;entryX=0.5;entryY=1;entryDx=0;entryDy=0;exitX=0.5;exitY=0;exitDx=0;exitDy=0;" parent="1" source="WyrtLwI7qsmNqxNzGDoM-197" target="WyrtLwI7qsmNqxNzGDoM-28" edge="1">
          <mxGeometry width="50" height="50" relative="1" as="geometry">
            <mxPoint x="-800" y="351" as="sourcePoint" />
            <mxPoint x="-920" y="273" as="targetPoint" />
          </mxGeometry>
        </mxCell>
        <mxCell id="WyrtLwI7qsmNqxNzGDoM-200" value="0,1" style="text;html=1;strokeColor=none;fillColor=none;align=center;verticalAlign=middle;whiteSpace=wrap;rounded=0;rotation=30;fontSize=15;" parent="1" vertex="1">
          <mxGeometry x="-891" y="280" width="60" height="23" as="geometry" />
        </mxCell>
        <mxCell id="WyrtLwI7qsmNqxNzGDoM-201" value="0,1" style="text;html=1;strokeColor=none;fillColor=none;align=center;verticalAlign=middle;whiteSpace=wrap;rounded=0;fontSize=15;" parent="1" vertex="1">
          <mxGeometry x="-940" y="189" width="50" height="23" as="geometry" />
        </mxCell>
        <mxCell id="WyrtLwI7qsmNqxNzGDoM-202" value="" style="endArrow=none;html=1;rounded=0;exitX=-0.002;exitY=0.167;exitDx=0;exitDy=0;exitPerimeter=0;entryX=0.5;entryY=1;entryDx=0;entryDy=0;" parent="1" source="tmT9E7BbvO8NceiwNoCN-1" target="WyrtLwI7qsmNqxNzGDoM-203" edge="1">
          <mxGeometry width="50" height="50" relative="1" as="geometry">
            <mxPoint x="-910" y="418.95" as="sourcePoint" />
            <mxPoint x="-819" y="221" as="targetPoint" />
            <Array as="points">
              <mxPoint x="-819" y="291" />
            </Array>
          </mxGeometry>
        </mxCell>
        <mxCell id="WyrtLwI7qsmNqxNzGDoM-203" value="peut faire" style="ellipse;whiteSpace=wrap;html=1;aspect=fixed;" parent="1" vertex="1">
          <mxGeometry x="-840" y="162.5" width="40" height="40" as="geometry" />
        </mxCell>
        <mxCell id="WyrtLwI7qsmNqxNzGDoM-205" value="" style="endArrow=none;html=1;rounded=0;exitX=1;exitY=0.5;exitDx=0;exitDy=0;entryX=-0.015;entryY=0.62;entryDx=0;entryDy=0;entryPerimeter=0;" parent="1" source="WyrtLwI7qsmNqxNzGDoM-203" target="WyrtLwI7qsmNqxNzGDoM-36" edge="1">
          <mxGeometry width="50" height="50" relative="1" as="geometry">
            <mxPoint x="-775" y="182.5" as="sourcePoint" />
            <mxPoint x="-749" y="183" as="targetPoint" />
          </mxGeometry>
        </mxCell>
        <mxCell id="WyrtLwI7qsmNqxNzGDoM-206" value="1,1" style="text;html=1;strokeColor=none;fillColor=none;align=center;verticalAlign=middle;whiteSpace=wrap;rounded=0;fontSize=15;" parent="1" vertex="1">
          <mxGeometry x="-797" y="158" width="50" height="23" as="geometry" />
        </mxCell>
        <mxCell id="WyrtLwI7qsmNqxNzGDoM-207" value="0,n" style="text;html=1;strokeColor=none;fillColor=none;align=center;verticalAlign=middle;whiteSpace=wrap;rounded=0;fontSize=15;" parent="1" vertex="1">
          <mxGeometry x="-831" y="223" width="50" height="23" as="geometry" />
        </mxCell>
        <mxCell id="WyrtLwI7qsmNqxNzGDoM-208" value="possède" style="ellipse;whiteSpace=wrap;html=1;aspect=fixed;rotation=20;" parent="1" vertex="1">
          <mxGeometry x="-971" y="398" width="40" height="40" as="geometry" />
        </mxCell>
        <mxCell id="WyrtLwI7qsmNqxNzGDoM-209" value="" style="endArrow=none;html=1;rounded=0;entryX=1;entryY=0;entryDx=0;entryDy=0;exitX=-0.021;exitY=0.169;exitDx=0;exitDy=0;exitPerimeter=0;" parent="1" source="tmT9E7BbvO8NceiwNoCN-1" target="WyrtLwI7qsmNqxNzGDoM-208" edge="1">
          <mxGeometry width="50" height="50" relative="1" as="geometry">
            <mxPoint x="-797" y="352" as="sourcePoint" />
            <mxPoint x="-899" y="351" as="targetPoint" />
          </mxGeometry>
        </mxCell>
        <mxCell id="WyrtLwI7qsmNqxNzGDoM-210" value="" style="endArrow=none;html=1;rounded=0;entryX=0;entryY=1;entryDx=0;entryDy=0;exitX=0.5;exitY=0;exitDx=0;exitDy=0;" parent="1" source="WyrtLwI7qsmNqxNzGDoM-140" target="WyrtLwI7qsmNqxNzGDoM-208" edge="1">
          <mxGeometry width="50" height="50" relative="1" as="geometry">
            <mxPoint x="-800" y="352" as="sourcePoint" />
            <mxPoint x="-932" y="408" as="targetPoint" />
          </mxGeometry>
        </mxCell>
        <mxCell id="WyrtLwI7qsmNqxNzGDoM-211" value="1,1" style="text;html=1;strokeColor=none;fillColor=none;align=center;verticalAlign=middle;whiteSpace=wrap;rounded=0;fontSize=15;rotation=-30;" parent="1" vertex="1">
          <mxGeometry x="-1041" y="427" width="60" height="23" as="geometry" />
        </mxCell>
        <mxCell id="WyrtLwI7qsmNqxNzGDoM-212" value="1,n" style="text;html=1;strokeColor=none;fillColor=none;align=center;verticalAlign=middle;whiteSpace=wrap;rounded=0;fontSize=15;rotation=-30;" parent="1" vertex="1">
          <mxGeometry x="-915" y="358" width="60" height="23" as="geometry" />
        </mxCell>
        <mxCell id="WyrtLwI7qsmNqxNzGDoM-228" value="user_id&amp;nbsp;" style="text;html=1;strokeColor=none;fillColor=none;align=left;verticalAlign=middle;whiteSpace=wrap;rounded=0;fontSize=11;" parent="1" vertex="1">
          <mxGeometry x="-550" y="517" width="50" height="22" as="geometry" />
        </mxCell>
        <mxCell id="WyrtLwI7qsmNqxNzGDoM-229" value="" style="rounded=1;whiteSpace=wrap;html=1;arcSize=0;" parent="1" vertex="1">
          <mxGeometry x="-233" y="302" width="126" height="182" as="geometry" />
        </mxCell>
        <mxCell id="WyrtLwI7qsmNqxNzGDoM-230" value="episode&amp;nbsp;" style="text;html=1;strokeColor=none;fillColor=none;align=center;verticalAlign=middle;whiteSpace=wrap;rounded=0;fontSize=21;" parent="1" vertex="1">
          <mxGeometry x="-233" y="302" width="126" height="30" as="geometry" />
        </mxCell>
        <mxCell id="WyrtLwI7qsmNqxNzGDoM-231" value="" style="endArrow=none;html=1;rounded=0;entryX=1;entryY=1;entryDx=0;entryDy=0;exitX=0;exitY=1;exitDx=0;exitDy=0;" parent="1" source="WyrtLwI7qsmNqxNzGDoM-230" target="WyrtLwI7qsmNqxNzGDoM-230" edge="1">
          <mxGeometry width="50" height="50" relative="1" as="geometry">
            <mxPoint x="-167" y="562" as="sourcePoint" />
            <mxPoint x="-117" y="512" as="targetPoint" />
          </mxGeometry>
        </mxCell>
        <mxCell id="WyrtLwI7qsmNqxNzGDoM-232" value="id_episode&amp;nbsp;" style="text;html=1;strokeColor=none;fillColor=none;align=left;verticalAlign=middle;whiteSpace=wrap;rounded=0;fontSize=16;" parent="1" vertex="1">
          <mxGeometry x="-223" y="332" width="116" height="30" as="geometry" />
        </mxCell>
        <mxCell id="WyrtLwI7qsmNqxNzGDoM-233" value="catalog_id&amp;nbsp;" style="text;html=1;strokeColor=none;fillColor=none;align=left;verticalAlign=middle;whiteSpace=wrap;rounded=0;fontSize=14;" parent="1" vertex="1">
          <mxGeometry x="-223" y="358" width="116" height="30" as="geometry" />
        </mxCell>
        <mxCell id="WyrtLwI7qsmNqxNzGDoM-234" value="nb_episode" style="text;html=1;strokeColor=none;fillColor=none;align=left;verticalAlign=middle;whiteSpace=wrap;rounded=0;fontSize=18;" parent="1" vertex="1">
          <mxGeometry x="-223" y="382" width="116" height="30" as="geometry" />
        </mxCell>
        <mxCell id="WyrtLwI7qsmNqxNzGDoM-235" value="title" style="text;html=1;strokeColor=none;fillColor=none;align=left;verticalAlign=middle;whiteSpace=wrap;rounded=0;fontSize=18;" parent="1" vertex="1">
          <mxGeometry x="-223" y="406" width="116" height="30" as="geometry" />
        </mxCell>
        <mxCell id="WyrtLwI7qsmNqxNzGDoM-236" value="description" style="text;html=1;strokeColor=none;fillColor=none;align=left;verticalAlign=middle;whiteSpace=wrap;rounded=0;fontSize=18;" parent="1" vertex="1">
          <mxGeometry x="-223" y="427" width="116" height="30" as="geometry" />
        </mxCell>
        <mxCell id="WyrtLwI7qsmNqxNzGDoM-237" value="publish_date" style="text;html=1;strokeColor=none;fillColor=none;align=left;verticalAlign=middle;whiteSpace=wrap;rounded=0;fontSize=18;" parent="1" vertex="1">
          <mxGeometry x="-223" y="449" width="116" height="30" as="geometry" />
        </mxCell>
        <mxCell id="WyrtLwI7qsmNqxNzGDoM-238" value="appartient" style="ellipse;whiteSpace=wrap;html=1;aspect=fixed;" parent="1" vertex="1">
          <mxGeometry x="-190" y="215" width="40" height="40" as="geometry" />
        </mxCell>
        <mxCell id="WyrtLwI7qsmNqxNzGDoM-240" value="" style="endArrow=none;html=1;rounded=0;exitX=1;exitY=0;exitDx=0;exitDy=0;entryX=0;entryY=0.5;entryDx=0;entryDy=0;" parent="1" source="WyrtLwI7qsmNqxNzGDoM-58" target="WyrtLwI7qsmNqxNzGDoM-238" edge="1">
          <mxGeometry width="50" height="50" relative="1" as="geometry">
            <mxPoint x="61" y="179.5" as="sourcePoint" />
            <mxPoint x="141" y="179.5" as="targetPoint" />
          </mxGeometry>
        </mxCell>
        <mxCell id="WyrtLwI7qsmNqxNzGDoM-241" value="" style="endArrow=none;html=1;rounded=0;exitX=0.5;exitY=0;exitDx=0;exitDy=0;entryX=0.5;entryY=1;entryDx=0;entryDy=0;" parent="1" source="WyrtLwI7qsmNqxNzGDoM-230" target="WyrtLwI7qsmNqxNzGDoM-238" edge="1">
          <mxGeometry width="50" height="50" relative="1" as="geometry">
            <mxPoint x="-271" y="245" as="sourcePoint" />
            <mxPoint x="-168" y="234" as="targetPoint" />
          </mxGeometry>
        </mxCell>
        <mxCell id="WyrtLwI7qsmNqxNzGDoM-245" value="1,n" style="text;html=1;strokeColor=none;fillColor=none;align=center;verticalAlign=middle;whiteSpace=wrap;rounded=0;fontSize=15;" parent="1" vertex="1">
          <mxGeometry x="-301" y="414.5" width="30" height="23" as="geometry" />
        </mxCell>
        <mxCell id="WyrtLwI7qsmNqxNzGDoM-246" value="1,1" style="text;html=1;strokeColor=none;fillColor=none;align=center;verticalAlign=middle;whiteSpace=wrap;rounded=0;fontSize=15;" parent="1" vertex="1">
          <mxGeometry x="-169" y="263.5" width="30" height="23" as="geometry" />
        </mxCell>
        <mxCell id="WyrtLwI7qsmNqxNzGDoM-268" value="" style="endArrow=none;html=1;rounded=0;exitX=0.5;exitY=0;exitDx=0;exitDy=0;entryX=0.5;entryY=1;entryDx=0;entryDy=0;" parent="1" source="WyrtLwI7qsmNqxNzGDoM-185" target="WyrtLwI7qsmNqxNzGDoM-174" edge="1">
          <mxGeometry width="50" height="50" relative="1" as="geometry">
            <mxPoint x="-776.5" y="642" as="sourcePoint" />
            <mxPoint x="-721.5" y="641" as="targetPoint" />
          </mxGeometry>
        </mxCell>
        <mxCell id="WyrtLwI7qsmNqxNzGDoM-269" value="" style="endArrow=none;html=1;rounded=0;exitX=1;exitY=0.5;exitDx=0;exitDy=0;entryX=0;entryY=0.906;entryDx=0;entryDy=0;entryPerimeter=0;" parent="1" source="WyrtLwI7qsmNqxNzGDoM-174" target="tmT9E7BbvO8NceiwNoCN-1" edge="1">
          <mxGeometry width="50" height="50" relative="1" as="geometry">
            <mxPoint x="-608" y="446.5" as="sourcePoint" />
            <mxPoint x="-553" y="445.5" as="targetPoint" />
          </mxGeometry>
        </mxCell>
        <mxCell id="WyrtLwI7qsmNqxNzGDoM-272" value="1,n" style="text;html=1;strokeColor=none;fillColor=none;align=center;verticalAlign=middle;whiteSpace=wrap;rounded=0;fontSize=11;rotation=0;" parent="1" vertex="1">
          <mxGeometry x="-835" y="528.5" width="30" height="23" as="geometry" />
        </mxCell>
        <mxCell id="WyrtLwI7qsmNqxNzGDoM-273" value="1,n" style="text;html=1;strokeColor=none;fillColor=none;align=center;verticalAlign=middle;whiteSpace=wrap;rounded=0;fontSize=15;rotation=0;" parent="1" vertex="1">
          <mxGeometry x="-921" y="602.5" width="30" height="23" as="geometry" />
        </mxCell>
        <mxCell id="WyrtLwI7qsmNqxNzGDoM-274" value="1,n" style="text;html=1;strokeColor=none;fillColor=none;align=center;verticalAlign=middle;whiteSpace=wrap;rounded=0;fontSize=15;rotation=-30;" parent="1" vertex="1">
          <mxGeometry x="-637" y="277.5" width="30" height="23" as="geometry" />
        </mxCell>
        <mxCell id="WyrtLwI7qsmNqxNzGDoM-284" value="" style="endArrow=none;html=1;rounded=0;entryX=0;entryY=0.75;entryDx=0;entryDy=0;exitX=0.995;exitY=0.419;exitDx=0;exitDy=0;exitPerimeter=0;" parent="1" source="WyrtLwI7qsmNqxNzGDoM-128" target="WyrtLwI7qsmNqxNzGDoM-229" edge="1">
          <mxGeometry width="50" height="50" relative="1" as="geometry">
            <mxPoint x="-198" y="628" as="sourcePoint" />
            <mxPoint x="-321" y="550" as="targetPoint" />
            <Array as="points">
              <mxPoint x="-301" y="439" />
            </Array>
          </mxGeometry>
        </mxCell>
        <mxCell id="WyrtLwI7qsmNqxNzGDoM-285" value="" style="endArrow=none;html=1;rounded=0;entryX=0.043;entryY=0.243;entryDx=0;entryDy=0;entryPerimeter=0;exitX=1;exitY=0.5;exitDx=0;exitDy=0;" parent="1" source="EuwHijLLQVPvpIF5Q3ev-1" target="WyrtLwI7qsmNqxNzGDoM-128" edge="1">
          <mxGeometry width="50" height="50" relative="1" as="geometry">
            <mxPoint x="-681" y="339" as="sourcePoint" />
            <mxPoint x="-404" y="544" as="targetPoint" />
          </mxGeometry>
        </mxCell>
        <mxCell id="WyrtLwI7qsmNqxNzGDoM-288" value="1,n" style="text;html=1;strokeColor=none;fillColor=none;align=center;verticalAlign=middle;whiteSpace=wrap;rounded=0;fontSize=15;rotation=10;" parent="1" vertex="1">
          <mxGeometry x="-642.5" y="327" width="30" height="23" as="geometry" />
        </mxCell>
        <mxCell id="WyrtLwI7qsmNqxNzGDoM-289" value="" style="ellipse;whiteSpace=wrap;html=1;aspect=fixed;" parent="1" vertex="1">
          <mxGeometry x="-327" y="1.5" width="40" height="40" as="geometry" />
        </mxCell>
        <mxCell id="WyrtLwI7qsmNqxNzGDoM-290" value="" style="endArrow=none;html=1;rounded=0;exitX=1;exitY=0.5;exitDx=0;exitDy=0;entryX=-0.001;entryY=0.849;entryDx=0;entryDy=0;entryPerimeter=0;" parent="1" source="WyrtLwI7qsmNqxNzGDoM-289" edge="1">
          <mxGeometry width="50" height="50" relative="1" as="geometry">
            <mxPoint x="-228" y="153.93" as="sourcePoint" />
            <mxPoint x="-145.1260000000002" y="21.969999999999914" as="targetPoint" />
          </mxGeometry>
        </mxCell>
        <mxCell id="WyrtLwI7qsmNqxNzGDoM-291" value="" style="endArrow=none;html=1;rounded=0;exitX=0.5;exitY=1;exitDx=0;exitDy=0;entryX=0.5;entryY=0;entryDx=0;entryDy=0;" parent="1" source="WyrtLwI7qsmNqxNzGDoM-289" target="WyrtLwI7qsmNqxNzGDoM-51" edge="1">
          <mxGeometry width="50" height="50" relative="1" as="geometry">
            <mxPoint x="-273" y="31.5" as="sourcePoint" />
            <mxPoint x="-135" y="31.5" as="targetPoint" />
          </mxGeometry>
        </mxCell>
        <mxCell id="WyrtLwI7qsmNqxNzGDoM-292" value="1,1" style="text;html=1;strokeColor=none;fillColor=none;align=center;verticalAlign=middle;whiteSpace=wrap;rounded=0;fontSize=15;" parent="1" vertex="1">
          <mxGeometry x="-229" width="30" height="23" as="geometry" />
        </mxCell>
        <mxCell id="WyrtLwI7qsmNqxNzGDoM-293" value="0,n" style="text;html=1;strokeColor=none;fillColor=none;align=center;verticalAlign=middle;whiteSpace=wrap;rounded=0;fontSize=15;" parent="1" vertex="1">
          <mxGeometry x="-309" y="57.5" width="30" height="23" as="geometry" />
        </mxCell>
        <mxCell id="WyrtLwI7qsmNqxNzGDoM-294" value="0,n" style="text;html=1;strokeColor=none;fillColor=none;align=center;verticalAlign=middle;whiteSpace=wrap;rounded=0;fontSize=15;" parent="1" vertex="1">
          <mxGeometry x="-229" y="209.5" width="30" height="23" as="geometry" />
        </mxCell>
        <mxCell id="WyrtLwI7qsmNqxNzGDoM-300" value="" style="endArrow=none;html=1;rounded=0;entryX=0.102;entryY=0.841;entryDx=0;entryDy=0;entryPerimeter=0;exitX=1;exitY=0.5;exitDx=0;exitDy=0;" parent="1" source="EuwHijLLQVPvpIF5Q3ev-1" target="WyrtLwI7qsmNqxNzGDoM-152" edge="1">
          <mxGeometry width="50" height="50" relative="1" as="geometry">
            <mxPoint x="-680" y="340" as="sourcePoint" />
            <mxPoint x="-588" y="364" as="targetPoint" />
          </mxGeometry>
        </mxCell>
        <mxCell id="WyrtLwI7qsmNqxNzGDoM-301" value="" style="endArrow=none;html=1;rounded=0;entryX=1;entryY=0.5;entryDx=0;entryDy=0;exitX=-0.002;exitY=0.48;exitDx=0;exitDy=0;exitPerimeter=0;" parent="1" source="WyrtLwI7qsmNqxNzGDoM-50" target="WyrtLwI7qsmNqxNzGDoM-152" edge="1">
          <mxGeometry width="50" height="50" relative="1" as="geometry">
            <mxPoint x="-370" y="224" as="sourcePoint" />
            <mxPoint x="-560" y="276" as="targetPoint" />
          </mxGeometry>
        </mxCell>
        <mxCell id="WyrtLwI7qsmNqxNzGDoM-302" value="1,n" style="text;html=1;strokeColor=none;fillColor=none;align=center;verticalAlign=middle;whiteSpace=wrap;rounded=0;fontSize=15;rotation=0;" parent="1" vertex="1">
          <mxGeometry x="-410" y="200.5" width="30" height="23" as="geometry" />
        </mxCell>
        <mxCell id="WyrtLwI7qsmNqxNzGDoM-303" value="" style="ellipse;whiteSpace=wrap;html=1;aspect=fixed;" parent="1" vertex="1">
          <mxGeometry x="-394" y="12" width="40" height="40" as="geometry" />
        </mxCell>
        <mxCell id="WyrtLwI7qsmNqxNzGDoM-304" value="" style="endArrow=none;html=1;rounded=0;exitX=1;exitY=0;exitDx=0;exitDy=0;entryX=0;entryY=0.5;entryDx=0;entryDy=0;" parent="1" source="WyrtLwI7qsmNqxNzGDoM-73" target="WyrtLwI7qsmNqxNzGDoM-303" edge="1">
          <mxGeometry width="50" height="50" relative="1" as="geometry">
            <mxPoint x="-297" y="52" as="sourcePoint" />
            <mxPoint x="-298" y="105" as="targetPoint" />
          </mxGeometry>
        </mxCell>
        <mxCell id="WyrtLwI7qsmNqxNzGDoM-306" value="" style="endArrow=none;html=1;rounded=0;entryX=1;entryY=1;entryDx=0;entryDy=0;exitX=0.5;exitY=0;exitDx=0;exitDy=0;" parent="1" source="WyrtLwI7qsmNqxNzGDoM-51" target="WyrtLwI7qsmNqxNzGDoM-303" edge="1">
          <mxGeometry width="50" height="50" relative="1" as="geometry">
            <mxPoint x="-310" y="90" as="sourcePoint" />
            <mxPoint x="-384" y="42" as="targetPoint" />
          </mxGeometry>
        </mxCell>
        <mxCell id="WyrtLwI7qsmNqxNzGDoM-307" value="0,n" style="text;html=1;strokeColor=none;fillColor=none;align=center;verticalAlign=middle;whiteSpace=wrap;rounded=0;fontSize=15;rotation=45;" parent="1" vertex="1">
          <mxGeometry x="-348" y="44.5" width="30" height="23" as="geometry" />
        </mxCell>
        <mxCell id="WyrtLwI7qsmNqxNzGDoM-308" value="1,1" style="text;html=1;strokeColor=none;fillColor=none;align=center;verticalAlign=middle;whiteSpace=wrap;rounded=0;fontSize=15;" parent="1" vertex="1">
          <mxGeometry x="-427" y="10" width="30" height="23" as="geometry" />
        </mxCell>
        <mxCell id="WyrtLwI7qsmNqxNzGDoM-309" value="" style="ellipse;whiteSpace=wrap;html=1;aspect=fixed;" parent="1" vertex="1">
          <mxGeometry x="-175" y="131.5" width="40" height="40" as="geometry" />
        </mxCell>
        <mxCell id="WyrtLwI7qsmNqxNzGDoM-310" value="" style="endArrow=none;html=1;rounded=0;entryX=0;entryY=0.5;entryDx=0;entryDy=0;exitX=1.001;exitY=0.039;exitDx=0;exitDy=0;exitPerimeter=0;" parent="1" source="WyrtLwI7qsmNqxNzGDoM-54" target="WyrtLwI7qsmNqxNzGDoM-309" edge="1">
          <mxGeometry width="50" height="50" relative="1" as="geometry">
            <mxPoint x="-240" y="150" as="sourcePoint" />
            <mxPoint x="-180" y="245" as="targetPoint" />
          </mxGeometry>
        </mxCell>
        <mxCell id="WyrtLwI7qsmNqxNzGDoM-311" value="" style="endArrow=none;html=1;rounded=0;entryX=1;entryY=0.5;entryDx=0;entryDy=0;exitX=0;exitY=0.5;exitDx=0;exitDy=0;" parent="1" source="WyrtLwI7qsmNqxNzGDoM-77" target="WyrtLwI7qsmNqxNzGDoM-309" edge="1">
          <mxGeometry width="50" height="50" relative="1" as="geometry">
            <mxPoint x="-235" y="162" as="sourcePoint" />
            <mxPoint x="-165" y="162" as="targetPoint" />
          </mxGeometry>
        </mxCell>
        <mxCell id="WyrtLwI7qsmNqxNzGDoM-312" value="0,n" style="text;html=1;strokeColor=none;fillColor=none;align=center;verticalAlign=middle;whiteSpace=wrap;rounded=0;fontSize=15;" parent="1" vertex="1">
          <mxGeometry x="-223" y="128.5" width="30" height="23" as="geometry" />
        </mxCell>
        <mxCell id="WyrtLwI7qsmNqxNzGDoM-313" value="1,1" style="text;html=1;strokeColor=none;fillColor=none;align=center;verticalAlign=middle;whiteSpace=wrap;rounded=0;fontSize=15;" parent="1" vertex="1">
          <mxGeometry x="-110" y="130.5" width="30" height="23" as="geometry" />
        </mxCell>
        <mxCell id="WyrtLwI7qsmNqxNzGDoM-314" value="" style="endArrow=none;html=1;rounded=0;entryX=0;entryY=0.5;entryDx=0;entryDy=0;exitX=1;exitY=0.5;exitDx=0;exitDy=0;" parent="1" source="EuwHijLLQVPvpIF5Q3ev-1" target="WyrtLwI7qsmNqxNzGDoM-100" edge="1">
          <mxGeometry width="50" height="50" relative="1" as="geometry">
            <mxPoint x="-663.5" y="488" as="sourcePoint" />
            <mxPoint x="-580.5" y="502" as="targetPoint" />
          </mxGeometry>
        </mxCell>
        <mxCell id="WyrtLwI7qsmNqxNzGDoM-315" value="1,n" style="text;html=1;strokeColor=none;fillColor=none;align=center;verticalAlign=middle;whiteSpace=wrap;rounded=0;fontSize=15;rotation=45;" parent="1" vertex="1">
          <mxGeometry x="-620" y="443" width="30" height="23" as="geometry" />
        </mxCell>
        <mxCell id="WyrtLwI7qsmNqxNzGDoM-318" value="" style="endArrow=none;html=1;rounded=0;entryX=0.5;entryY=1;entryDx=0;entryDy=0;exitX=1;exitY=0.5;exitDx=0;exitDy=0;" parent="1" source="WyrtLwI7qsmNqxNzGDoM-100" target="WyrtLwI7qsmNqxNzGDoM-50" edge="1">
          <mxGeometry width="50" height="50" relative="1" as="geometry">
            <mxPoint x="-287" y="506" as="sourcePoint" />
            <mxPoint x="-186" y="692" as="targetPoint" />
            <Array as="points">
              <mxPoint x="-320" y="526" />
            </Array>
          </mxGeometry>
        </mxCell>
        <mxCell id="WyrtLwI7qsmNqxNzGDoM-319" value="1,n" style="text;html=1;strokeColor=none;fillColor=none;align=center;verticalAlign=middle;whiteSpace=wrap;rounded=0;fontSize=15;" parent="1" vertex="1">
          <mxGeometry x="-371" y="499" width="30" height="23" as="geometry" />
        </mxCell>
        <mxCell id="WyrtLwI7qsmNqxNzGDoM-320" value="" style="ellipse;whiteSpace=wrap;html=1;aspect=fixed;" parent="1" vertex="1">
          <mxGeometry x="143" y="161.5" width="40" height="40" as="geometry" />
        </mxCell>
        <mxCell id="WyrtLwI7qsmNqxNzGDoM-322" value="" style="endArrow=none;html=1;rounded=0;entryX=0.5;entryY=1;entryDx=0;entryDy=0;exitX=0.5;exitY=0;exitDx=0;exitDy=0;" parent="1" source="WyrtLwI7qsmNqxNzGDoM-320" target="WyrtLwI7qsmNqxNzGDoM-111" edge="1">
          <mxGeometry width="50" height="50" relative="1" as="geometry">
            <mxPoint x="345" y="225.5" as="sourcePoint" />
            <mxPoint x="270" y="225.5" as="targetPoint" />
          </mxGeometry>
        </mxCell>
        <mxCell id="WyrtLwI7qsmNqxNzGDoM-323" value="" style="endArrow=none;html=1;rounded=0;entryX=0;entryY=0.5;entryDx=0;entryDy=0;exitX=1;exitY=0.5;exitDx=0;exitDy=0;" parent="1" source="WyrtLwI7qsmNqxNzGDoM-79" target="WyrtLwI7qsmNqxNzGDoM-320" edge="1">
          <mxGeometry width="50" height="50" relative="1" as="geometry">
            <mxPoint x="173" y="172" as="sourcePoint" />
            <mxPoint x="173" y="126" as="targetPoint" />
          </mxGeometry>
        </mxCell>
        <mxCell id="WyrtLwI7qsmNqxNzGDoM-325" value="0,n" style="text;html=1;strokeColor=none;fillColor=none;align=center;verticalAlign=middle;whiteSpace=wrap;rounded=0;fontSize=15;" parent="1" vertex="1">
          <mxGeometry x="90" y="158.5" width="30" height="23" as="geometry" />
        </mxCell>
        <mxCell id="WyrtLwI7qsmNqxNzGDoM-326" value="1,1" style="text;html=1;strokeColor=none;fillColor=none;align=center;verticalAlign=middle;whiteSpace=wrap;rounded=0;fontSize=15;" parent="1" vertex="1">
          <mxGeometry x="160" y="128.5" width="30" height="23" as="geometry" />
        </mxCell>
        <mxCell id="WyrtLwI7qsmNqxNzGDoM-327" value="" style="ellipse;whiteSpace=wrap;html=1;aspect=fixed;" parent="1" vertex="1">
          <mxGeometry x="-115" y="181" width="40" height="40" as="geometry" />
        </mxCell>
        <mxCell id="WyrtLwI7qsmNqxNzGDoM-329" value="" style="endArrow=none;html=1;rounded=0;entryX=0.5;entryY=1;entryDx=0;entryDy=0;" parent="1" target="WyrtLwI7qsmNqxNzGDoM-327" edge="1">
          <mxGeometry width="50" height="50" relative="1" as="geometry">
            <mxPoint x="-55" y="450" as="sourcePoint" />
            <mxPoint x="153" y="192" as="targetPoint" />
            <Array as="points">
              <mxPoint x="-80" y="400" />
            </Array>
          </mxGeometry>
        </mxCell>
        <mxCell id="WyrtLwI7qsmNqxNzGDoM-330" value="" style="endArrow=none;html=1;rounded=0;entryX=1;entryY=0.25;entryDx=0;entryDy=0;exitX=0;exitY=0.5;exitDx=0;exitDy=0;" parent="1" source="WyrtLwI7qsmNqxNzGDoM-327" target="WyrtLwI7qsmNqxNzGDoM-56" edge="1">
          <mxGeometry width="50" height="50" relative="1" as="geometry">
            <mxPoint x="76" y="192" as="sourcePoint" />
            <mxPoint x="153" y="192" as="targetPoint" />
          </mxGeometry>
        </mxCell>
        <mxCell id="WyrtLwI7qsmNqxNzGDoM-331" value="0,n" style="text;html=1;strokeColor=none;fillColor=none;align=center;verticalAlign=middle;whiteSpace=wrap;rounded=0;fontSize=15;" parent="1" vertex="1">
          <mxGeometry x="-185" y="177.5" width="30" height="23" as="geometry" />
        </mxCell>
        <mxCell id="WyrtLwI7qsmNqxNzGDoM-332" value="1,1" style="text;html=1;strokeColor=none;fillColor=none;align=center;verticalAlign=middle;whiteSpace=wrap;rounded=0;fontSize=15;" parent="1" vertex="1">
          <mxGeometry x="-84" y="373.5" width="30" height="23" as="geometry" />
        </mxCell>
        <mxCell id="feSxI00YZJS26VzHxh9C-2" value="" style="rounded=1;whiteSpace=wrap;html=1;arcSize=0;" vertex="1" parent="1">
          <mxGeometry x="-261" y="507" width="126" height="182" as="geometry" />
        </mxCell>
        <mxCell id="feSxI00YZJS26VzHxh9C-3" value="catégorie" style="text;html=1;strokeColor=none;fillColor=none;align=center;verticalAlign=middle;whiteSpace=wrap;rounded=0;fontSize=21;" vertex="1" parent="1">
          <mxGeometry x="-261" y="507" width="126" height="30" as="geometry" />
        </mxCell>
        <mxCell id="feSxI00YZJS26VzHxh9C-4" value="" style="endArrow=none;html=1;rounded=0;entryX=1;entryY=1;entryDx=0;entryDy=0;exitX=0;exitY=1;exitDx=0;exitDy=0;" edge="1" parent="1" source="feSxI00YZJS26VzHxh9C-3" target="feSxI00YZJS26VzHxh9C-3">
          <mxGeometry width="50" height="50" relative="1" as="geometry">
            <mxPoint x="-195" y="767" as="sourcePoint" />
            <mxPoint x="-145" y="717" as="targetPoint" />
          </mxGeometry>
        </mxCell>
      </root>
    </mxGraphModel>
  </diagram>
</mxfile>
